<?xml version="1.0" encoding="utf-8"?>
<!-- Generator: Adobe Illustrator 22.1.0, SVG Export Plug-In . SVG Version: 6.00 Build 0)  -->
<svg version="1.1" id="Layer_1" xmlns="http://www.w3.org/2000/svg" xmlns:xlink="http://www.w3.org/1999/xlink" x="0px" y="0px"
	 viewBox="0 0 68.2 68.2" style="enable-background:new 0 0 68.2 68.2;" xml:space="preserve">
<style type="text/css">
	.st0{fill:#EC7700;}
	.st1{fill:#FFFFFF;}
</style>
<path class="st0" d="M0,34.1C0,15.3,15.3,0,34.1,0C53,0,68.2,15.3,68.2,34.1C68.2,53,53,68.2,34.1,68.2C15.3,68.2,0,53,0,34.1"/>
<path class="st1" d="M57.2,23.4H54v-3.3c0-1.1-0.9-1.9-1.9-1.9c-1.1,0-1.9,0.9-1.9,1.9v3.3h-3.3c-1.1,0-1.9,0.9-1.9,1.9
	s0.9,1.9,1.9,1.9h3.3v3.3c0,0.9,0.6,1.6,1.3,1.8c0.2,0.1,0.4,0.1,0.6,0.1c1.1,0,1.9-0.9,1.9-1.9v-3.3h3.3c1.1,0,1.9-0.9,1.9-1.9
	S58.3,23.4,57.2,23.4 M48.3,30.5v-1.4h-1.4c-2.1,0-3.7-1.7-3.7-3.7c0-2.1,1.7-3.7,3.7-3.7h1.4v0c-1.4-0.9-3.1-1.4-5.2-1.4
	c-4.5,0-7.5,2.5-9.4,5.3c0,0,0,0,0,0.1c-1.9-2.8-5-5.3-9.5-5.3c-6,0-9,4.5-9,7.9c0,5.2,2.6,8.7,6.3,12.2c3.5,3.4,8,6.8,12.2,11.6v0
	l0,0c6.7-7.8,14.2-11.8,17.2-17.9C49.3,33.5,48.3,32.2,48.3,30.5"/>
</svg>
