<?xml version="1.0" encoding="utf-8"?>
<!-- Generator: Adobe Illustrator 22.1.0, SVG Export Plug-In . SVG Version: 6.00 Build 0)  -->
<svg version="1.1" id="Layer_1" xmlns="http://www.w3.org/2000/svg" xmlns:xlink="http://www.w3.org/1999/xlink" x="0px" y="0px"
	 viewBox="0 0 68.2 68.2" style="enable-background:new 0 0 68.2 68.2;" xml:space="preserve">
<style type="text/css">
	.st0{fill:#EC7700;}
	.st1{fill:#FFFFFF;}
</style>
<path class="st0" d="M0,34.1C0,15.3,15.3,0,34.1,0C53,0,68.2,15.3,68.2,34.1C68.2,53,53,68.2,34.1,68.2C15.3,68.2,0,53,0,34.1"/>
<path class="st1" d="M46.5,20.7c-6.6-2.2-10,2.1-11.6,2.1c-1.6,0-5.2-4.9-11.6-2.1c-5.5,2.4-8.1,9-5.1,15.3h5.4l2.1-5.8
	c0.2-0.6,0.8-1,1.4-1c0.6,0,1.2,0.4,1.3,1.1l2,6.6l3.2-11.1c0.2-0.7,0.5-1.2,1.2-1.2c0.7,0,1,0.5,1.1,1.2L38.2,36h5.6v2.4h-6.8
	c-0.7,0-1.3-0.5-1.5-1.2l-1.1-5.6L32,41.8c-0.2,0.6-0.8,1.1-1.4,1.1c-0.6,0-1.2-0.4-1.4-1.1L27.1,34l-1.1,3.5c-0.2,0.6-0.8,1-1.4,1
	h-4.4c0,0-4.6,0-4.6,0v2.4h6.6c0,0,1.2,1,1.2,1c2.8,2.2,5.8,4.7,8.5,6.3c0.8,0.5,3.2,2.1,3.2,2.1s2.4-1.6,3.2-2.1
	c2.6-1.6,6.8-4,9.5-6.3C56.1,34.5,52.9,22.9,46.5,20.7"/>
</svg>
