<?xml version="1.0" encoding="utf-8"?>
<!-- Generator: Adobe Illustrator 22.1.0, SVG Export Plug-In . SVG Version: 6.00 Build 0)  -->
<svg version="1.1" id="Layer_1" xmlns="http://www.w3.org/2000/svg" xmlns:xlink="http://www.w3.org/1999/xlink" x="0px" y="0px"
	 viewBox="0 0 68.2 68.2" style="enable-background:new 0 0 68.2 68.2;" xml:space="preserve">
<style type="text/css">
	.st0{fill:#EA7824;}
	.st1{fill:#FFFFFF;}
</style>
<path class="st0" d="M0,34.1C0,15.3,15.3,0,34.1,0C53,0,68.2,15.3,68.2,34.1C68.2,53,53,68.2,34.1,68.2C15.3,68.2,0,53,0,34.1"/>
<g>
	<path class="st1" d="M27.9,22.6c2.3-0.2,3.9-2.2,3.7-4.4c-0.2-2.3-2.2-3.9-4.4-3.7c-2.3,0.2-3.9,2.2-3.7,4.4
		C23.7,21.1,25.7,22.8,27.9,22.6z"/>
	<path class="st1" d="M45.2,41c-4.8-3-7.1-3.4-7.1-3.4c0.8-0.7,6.2-2.4,7-2.1c2.5,1,4.6,6.7,4.6,6.7l3-1.3
		C49.2,29.4,45.9,30,45,30.1c-2,0.3-6.4,1.7-8.8,2.4l-1.5-4.4c3.3-1.5,5.7-3.6,6.2-5.2c0.6-2.2-1.1-9.6-1.1-9.6l-2.9,0.2
		c0.8,2.8,0.4,5.9,0.2,6.4c-1,2.8-5.7,4.1-6.3,4.3l0,0c0,0,0,0,0,0v0l-3.5,0.9c0,0-5.9,1.4-7.4,0.6c-1.2-0.7-2.9-3.3-4-5.5l-2.3,1.8
		c0,0,3.1,6,4.6,7.7c1,1,1.3,1.5,7.1,0.9l4.2,9c0.5,0.9,0.9,1.4,2.2,2.1c2.7,1.6,6.5,0.8,10.4,3.2c3.4,2.1,8.2,8.5,8.2,8.5l2.3-2.5
		C51.4,49.1,47.2,42.2,45.2,41z"/>
	<path class="st1" d="M25.4,41.9l-3.1,4.2c0,0,4.6,5.6,15.6,8.7h1.9C39.9,54.8,31.5,50.5,25.4,41.9z"/>
</g>
</svg>
