<?xml version="1.0" encoding="utf-8"?>
<!-- Generator: Adobe Illustrator 22.1.0, SVG Export Plug-In . SVG Version: 6.00 Build 0)  -->
<svg version="1.1" id="Layer_1" xmlns="http://www.w3.org/2000/svg" xmlns:xlink="http://www.w3.org/1999/xlink" x="0px" y="0px"
	 viewBox="0 0 68.2 68.2" style="enable-background:new 0 0 68.2 68.2;" xml:space="preserve">
<style type="text/css">
	.st0{fill:#EA7824;}
	.st1{fill:#FFFFFF;}
</style>
<path class="st0" d="M0,34.1C0,15.3,15.3,0,34.1,0C53,0,68.2,15.3,68.2,34.1C68.2,53,53,68.2,34.1,68.2C15.3,68.2,0,53,0,34.1"/>
<g>
	<path class="st1" d="M49.2,23.1c-0.8-0.2-1.5-0.3-2.2-0.4c0-0.4,0-0.9,0-1.4c0-0.4-0.4-0.6-0.5-0.6c-1.9-0.7-3.7-1.2-5.4-1.7
		c-1.4-2.5-4-4.2-7-4.2c-3,0-5.6,1.7-7,4.2c-1.8,0.4-3.6,1-5.6,1.7c-0.2,0.1-0.3,0.3-0.3,0.6c0,0.5,0,1,0,1.4
		c-0.7,0.1-1.5,0.3-2.2,0.4c-0.4,0.1-0.6,0.4-0.6,0.8v28.6c0,0.5,0.4,0.8,0.8,0.8h10.9v-4.8h8.1v4.8h10.9c0.4,0,0.8-0.4,0.8-0.8
		V23.9C49.9,23.6,49.6,23.2,49.2,23.1z M25.7,45.1h-4.3v-4.5h4.3V45.1z M25.7,37.8h-4.3v-4.5h4.3V37.8z M25.7,30.4h-4.3v-4.5h4.3
		V30.4z M32.7,45.1h-4.3v-4.5h4.3V45.1z M32.7,37.8h-4.3v-4.5h4.3V37.8z M39.7,45.1h-4.3v-4.5h4.3V45.1z M39.7,37.8h-4.3v-4.5h4.3
		V37.8z M34.1,29.6c-3.4,0-6.2-2.9-6.2-6.4c0-3.5,2.8-6.4,6.2-6.4c3.4,0,6.2,2.9,6.2,6.4C40.3,26.7,37.5,29.6,34.1,29.6z M46.6,45.1
		h-4.3v-4.5h4.3V45.1z M46.6,37.8h-4.3v-4.5h4.3V37.8z M46.6,30.4h-4.3v-4.5h4.3V30.4z"/>
	<polygon class="st1" points="35.6,22.4 32.7,22.4 32.7,19.6 31.1,19.6 31.1,26.8 32.7,26.8 32.7,23.8 35.6,23.8 35.6,26.8 
		37.2,26.8 37.2,19.6 35.6,19.6 	"/>
</g>
</svg>
